<svg width="105" height="39" viewBox="0 0 105 39" fill="none" xmlns="http://www.w3.org/2000/svg">
<path d="M0 18.5587H6.79305C6.85866 19.9046 7.35812 20.9131 8.29156 21.5845C9.29049 22.2575 10.622 22.5931 12.2875 22.5931C13.4863 22.5931 14.518 22.3583 15.3843 21.8871C16.1834 21.4174 16.5831 20.7777 16.5831 19.9707C16.5831 18.7603 15.1845 17.8526 12.3874 17.2474C11.1886 17.0457 10.2895 16.844 9.69017 16.6423C6.15941 15.7692 3.79626 14.7259 2.59744 13.5156C1.26443 12.3052 0.599468 10.6915 0.599468 8.6742C0.599468 6.11958 1.56411 4.00146 3.49647 2.31984C5.49444 0.773797 8.09177 0 11.2885 0C14.7505 0 17.5149 0.773797 19.58 2.31984C21.5108 4.00135 22.5426 6.18727 22.6768 8.87592H18.3812C17.1153 8.87592 16.1491 8.30539 15.4842 7.16123C15.2173 6.89327 14.9504 6.62376 14.685 6.35436C13.8859 5.74922 12.787 5.44665 11.3885 5.44665C10.0555 5.44665 9.05652 5.64836 8.39156 6.05179C7.7922 6.45522 7.49252 7.06037 7.49252 7.86734C7.49252 8.94371 9.22356 9.85143 12.6872 10.5906C13.0868 10.7261 13.4365 10.8269 13.736 10.8932C14.0359 10.961 14.3183 10.994 14.5853 10.994C17.9817 11.8687 20.345 12.8773 21.678 14.0199C22.9423 15.2303 23.5761 16.844 23.5761 18.8613C23.5761 21.8209 22.51 24.1061 20.3794 25.7199C18.3814 27.1997 15.3845 27.9389 11.3886 27.9389C7.59242 27.9389 4.76102 27.1667 2.89723 25.6191C0.964643 24.073 0 21.8209 0 18.8613V18.5587Z" fill="white"/>
<path d="M43.6674 19.1638H48.6622C47.9286 21.988 46.5301 24.1407 44.4665 25.6191C42.4015 27.1667 39.8041 27.9389 36.6745 27.9389C32.8784 27.9389 29.9143 26.6954 27.7836 24.2069C25.6515 21.7862 24.5869 18.3238 24.5869 13.8182C24.5869 9.51568 25.6187 6.15265 27.6837 3.73195C29.8143 1.24502 32.7785 0 36.5746 0C40.5706 0 43.6674 1.2104 45.8651 3.6311C47.9957 6.11958 49.0618 9.58192 49.0618 14.0199C49.0618 14.2894 49.0618 14.5242 49.0618 14.7259C49.0618 14.9276 49.0618 15.0631 49.0618 15.1293C49.0618 15.4665 49.0275 15.7014 48.9619 15.8353H31.6796C31.7453 17.9204 32.2447 19.4664 33.1782 20.475C34.0429 21.5514 35.3416 22.0888 37.0742 22.0888C38.2059 22.0888 39.1721 21.854 39.9712 21.3828C40.171 21.3166 40.3535 21.1985 40.5206 21.0299C40.6861 20.8628 40.8702 20.6768 41.07 20.475C41.1356 20.2733 41.3853 20.0053 41.8194 19.6681C42.2515 19.3325 42.8682 19.1638 43.6674 19.1638ZM31.6796 11.2966H41.8692C41.735 9.48106 41.2698 8.13674 40.4706 7.26208C39.6043 6.32119 38.3727 5.84997 36.7743 5.84997C35.3087 5.84997 34.1098 6.32119 33.1779 7.26208C32.2447 8.20442 31.7453 9.54875 31.6796 11.2966Z" fill="white"/>
<path d="M50.6729 27.4346V14.4234C50.6729 11.801 51.0552 9.59942 51.8216 7.81682C52.5864 6.03612 53.6355 4.60669 54.9685 3.53021C56.2328 2.52163 57.7157 1.78245 59.4139 1.31123C61.1123 0.841558 62.8608 0.605225 64.6585 0.605225C64.7911 0.605225 64.9581 0.605225 65.1582 0.605225C65.3577 0.605225 65.5233 0.605225 65.6579 0.605225V7.76645H63.3597C61.4273 7.76645 59.9963 8.23767 59.0643 9.17857C58.1309 10.121 57.6657 11.5993 57.6657 13.6165V27.4347H50.6729V27.4346Z" fill="white"/>
<path d="M68.1602 0.605225H71.7565C72.6882 0.605225 73.4875 0.942415 74.1541 1.6138C74.819 2.28674 75.153 3.0936 75.153 4.03449V27.4346H68.1602V0.605225Z" fill="white"/>
<path d="M80.7325 27.5893C82.932 27.5893 84.7151 25.7891 84.7151 23.5684C84.7151 21.3476 82.932 19.5474 80.7325 19.5474C78.533 19.5474 76.75 21.3476 76.75 23.5684C76.75 25.7891 78.533 27.5893 80.7325 27.5893Z" fill="#F2994A"/>
<path d="M99.7604 3.63099C97.563 1.21029 94.4661 0 90.4701 0C86.674 0 83.7099 1.24502 81.5794 3.73195C79.5142 6.15265 78.4824 9.51579 78.4824 13.8182C78.4824 15.6139 78.6544 17.2409 78.9928 18.7053C79.6305 18.4167 80.3353 18.2526 81.0794 18.2526C83.9025 18.2526 86.1911 20.5632 86.1911 23.4136C86.1911 24.6929 85.7275 25.8612 84.964 26.7629C86.5704 27.5469 88.4391 27.939 90.5699 27.939C93.6997 27.939 96.297 27.1668 98.3622 25.6192C100.425 24.1409 101.824 21.9881 102.558 19.1639H97.5631C96.7639 19.1639 96.1473 19.3326 95.7149 19.6682C95.2808 20.0054 95.031 20.2734 94.9654 20.4751C94.766 20.6768 94.5817 20.8629 94.4161 21.03C94.249 21.1986 94.0665 21.3167 93.8667 21.3829C93.0676 21.8542 92.1014 22.0889 90.9695 22.0889C89.2369 22.0889 87.9384 21.5515 87.0737 20.4751C86.1402 19.4665 85.6406 17.9205 85.5754 15.8354H102.858C102.923 15.7015 102.957 15.4666 102.957 15.1294C102.957 15.0632 102.957 14.9277 102.957 14.726C102.957 14.5243 102.957 14.2894 102.957 14.02C102.957 9.58192 101.891 6.11947 99.7604 3.63099ZM85.5753 11.2966C85.6405 9.54886 86.1401 8.20453 87.0735 7.26208C88.0052 6.32119 89.204 5.84997 90.6699 5.84997C92.2683 5.84997 93.4999 6.32119 94.3663 7.26208C95.1654 8.13674 95.6303 9.48106 95.7646 11.2966H85.5753Z" fill="white"/>
<path d="M82.1494 30.8649V34.6107C82.1494 36.1617 81.3475 36.9322 79.7535 36.9225C78.169 36.8933 77.377 36.0251 77.377 34.3083C77.377 32.5526 78.0531 31.6552 79.4155 31.6063C80.0531 31.6063 80.5456 31.8696 80.8742 32.4062V30.2114H81.5118C81.8597 30.2115 82.1494 30.514 82.1494 30.8649ZM78.7005 34.2497C78.6907 35.2935 79.0385 35.8204 79.7728 35.8204C80.5072 35.8204 80.8743 35.2936 80.8743 34.2497C80.8452 33.2549 80.4879 32.7672 79.7922 32.7672C79.0967 32.7673 78.7391 33.255 78.7005 34.2497Z" fill="white"/>
<path d="M85.1058 36.9617C83.5599 36.9128 82.7871 36.0058 82.7871 34.2498C82.7871 32.4941 83.5698 31.6161 85.1252 31.6064C86.7482 31.6064 87.5115 32.6111 87.4149 34.6304H84.1107C84.159 35.4204 84.497 35.8204 85.1252 35.8204C85.4247 35.8204 85.705 35.6936 85.9561 35.4497C86.0717 35.3229 86.2167 35.2644 86.3908 35.2644H87.3374C87.0571 36.3567 86.3617 36.9617 85.1058 36.9617ZM84.1298 33.7036H86.0523C85.9753 33.0208 85.6565 32.6695 85.1057 32.6695C84.5551 32.6696 84.2265 33.0208 84.1298 33.7036Z" fill="white"/>
<path d="M90.3426 35.9081C90.8835 35.9081 91.1539 35.7521 91.1539 35.4204C91.1539 35.1571 90.7097 34.9425 89.8304 34.7864C88.7002 34.5816 88.1204 34.0744 88.1107 33.2648C88.1107 32.1527 88.9801 31.6259 90.1492 31.6064C90.8063 31.6064 91.328 31.7527 91.7144 32.0454C92.091 32.3478 92.2942 32.7673 92.3229 33.3037H91.5115C91.212 33.294 91.0186 33.1867 90.9415 32.9818C90.8542 32.7576 90.5936 32.6308 90.1683 32.6308C89.666 32.6308 89.4148 32.7673 89.4148 33.0307C89.4148 33.2941 89.7433 33.4988 90.4101 33.6256C91.2795 33.8012 91.8495 34.0256 92.1298 34.289C92.3711 34.5426 92.4871 34.8547 92.4871 35.2059C92.4871 36.4739 91.5017 36.9422 90.1491 36.9422C89.4341 36.9422 88.8932 36.7861 88.5453 36.4837C88.1589 36.1912 87.9658 35.7423 87.9658 35.1473H89.2795C89.3088 35.713 89.7144 35.9081 90.3426 35.9081Z" fill="white"/>
<path d="M93.8111 30.2114C94.2364 30.2114 94.4392 30.4259 94.4295 30.8454V31.2259H93.1445V30.2114H93.8111ZM93.8111 31.6842C94.2266 31.6842 94.4295 31.8892 94.4295 32.3086V36.8445H93.1445V31.6844H93.8111V31.6842Z" fill="white"/>
<path d="M95.1738 34.2692C95.1738 32.5523 95.9659 31.6938 97.5504 31.6646C99.1444 31.6549 99.9463 32.4157 99.9463 33.9667V37.0198C99.9463 38.3172 99.1349 38.9706 97.502 39C96.3428 39 95.6086 38.4537 95.309 37.3611H96.7291C96.8161 37.7318 97.1155 37.9075 97.647 37.9075C98.3231 37.9075 98.671 37.5076 98.671 36.7077C98.671 36.7077 98.671 36.7175 98.671 36.1809C98.3424 36.6881 97.8498 36.942 97.2122 36.942C95.85 36.942 95.1738 36.0444 95.1738 34.2692ZM98.6712 34.3081C98.6806 33.2645 98.3233 32.7474 97.5891 32.7474C96.8548 32.7474 96.4975 33.2646 96.4975 34.3081C96.5266 35.3031 96.8741 35.8006 97.5698 35.8006C98.2656 35.8006 98.6326 35.3031 98.6712 34.3081Z" fill="white"/>
<path d="M104.342 36.8444C103.917 36.8152 103.704 36.6102 103.704 36.2006V33.5473C103.675 33.011 103.385 32.7475 102.815 32.7475C102.245 32.7475 101.956 33.011 101.946 33.5473V36.8444H100.642V33.8106C100.642 32.3378 101.376 31.6062 102.835 31.6062C104.294 31.6062 105.009 32.3378 104.999 33.8106V36.8444H104.342Z" fill="white"/>
</svg>
